<svg xmlns="http://www.w3.org/2000/svg" xmlns:xlink="http://www.w3.org/1999/xlink" xmlns:lucid="lucid" width="770" height="579.67"><g transform="translate(-440 -220)" lucid:page-tab-id="0_0"><path d="M780 246a6 6 0 0 1 6-6h108a6 6 0 0 1 6 6v48a6 6 0 0 1-6 6H786a6 6 0 0 1-6-6z" stroke="#3a414a" fill="#fff7a1" fill-opacity=".85"/><use xlink:href="#a" transform="matrix(1,0,0,1,792,252) translate(1.827160493827158 22.27777777777778)"/><path d="M839.5 301.85l-.08.1-.1.13-.12.13-.14.15-.17.16-.2.17-.23.2-.28.2-.35.2-.42.26-.52.3-.65.32-.86.38-1.16.45-1.6.55-2.26.7-3.44.86-5.57 1.16-10.1 1.7-22.2 2.7-210.34 17.4-10.1 1.68-5.57 1.17-3.44.88-2.27.7-1.6.54-1.14.45-.85.38-.66.33-.53.3-.42.24-.34.22-.27.2-.23.2-.2.15-.16.15-.14.14-.12.12-.1.13-.08.1" stroke="#b0c7aa" stroke-opacity=".85" stroke-width="3" stroke-linejoin="round" fill="none"/><path d="M841.47 302.03l-3-.06.03-1.5h3zM551.5 338.64v.9h-3v-.9z" stroke="#b0c7aa" stroke-opacity=".85" stroke-width=".05" fill="#b0c7aa" fill-opacity=".85"/><path d="M1050 346a6 6 0 0 1 6-6h128a6 6 0 0 1 6 6v48a6 6 0 0 1-6 6h-128a6 6 0 0 1-6-6z" stroke="#3a414a" fill="#fff7a1" fill-opacity=".85"/><use xlink:href="#b" transform="matrix(1,0,0,1,1062,352) translate(2.5679012345678913 22.27777777777778)"/><path d="M840.5 301.86v.02l.1.12.1.13.13.14.14.15.17.15.2.18.24.2.3.2.34.22.43.26.53.3.68.33.9.4 1.17.46 1.62.56 2.33.7 3.5.9 5.72 1.2 10.32 1.72 22.8 2.8 198.36 16.8 10.32 1.72 5.7 1.2 3.52.9 2.33.7 1.62.56 1.18.46.9.4.67.33.53.3.43.26.35.23.3.2.23.2.2.17.17.15.14.15.12.14.1.13.1.12v.02" stroke="#b0c7aa" stroke-opacity=".85" stroke-width="3" stroke-linejoin="round" fill="none"/><path d="M841.53 301.97l-3 .06-.03-1.57h3zM1121.5 339.54h-3v-.9h3z" stroke="#b0c7aa" stroke-opacity=".85" stroke-width=".05" fill="#b0c7aa" fill-opacity=".85"/><path d="M480 346a6 6 0 0 1 6-6h128a6 6 0 0 1 6 6v48a6 6 0 0 1-6 6H486a6 6 0 0 1-6-6z" stroke="#3a414a" fill="#cfe4ff" fill-opacity=".85"/><use xlink:href="#c" transform="matrix(1,0,0,1,492,352) translate(5.714964313271608 22.27777777777778)"/><use xlink:href="#d" transform="matrix(1,0,0,1,492,352) translate(96.94953221450618 22.27777777777778)"/><path d="M524 440c8.84 0 16 13.43 16 30s-7.16 30-16 30h-48c-8.84 0-16-13.43-16-30s7.16-30 16-30z" stroke="#3a414a" fill="#ffd9d9" fill-opacity=".85"/><use xlink:href="#e" transform="matrix(1,0,0,1,465,445) translate(14.165581597222221 30.27777777777778)"/><use xlink:href="#f" transform="matrix(1,0,0,1,465,445) translate(42.49891493055556 30.27777777777778)"/><path d="M624 440c8.84 0 16 13.43 16 30s-7.16 30-16 30h-48c-8.84 0-16-13.43-16-30s7.16-30 16-30z" stroke="#3a414a" fill="#ffd9d9" fill-opacity=".85"/><use xlink:href="#e" transform="matrix(1,0,0,1,565,445) translate(14.165581597222221 30.27777777777778)"/><use xlink:href="#g" transform="matrix(1,0,0,1,565,445) translate(42.49891493055556 30.27777777777778)"/><path d="M549.9 401.96l-.1.65-.27 1.03-.37 1-.5 1.02-.64 1.05-.86 1.13-1.15 1.23-1.6 1.4-2.4 1.7-3.98 2.27L508 427.8l-2.4 1.7-1.6 1.4-1.16 1.24-.86 1.12-.65 1.06-.5 1-.36 1.02-.26 1-.1.67" stroke="#b0c7aa" stroke-opacity=".85" stroke-width="3" stroke-linejoin="round" fill="none"/><path d="M551.42 402.07l-3-.14.08-1.47h3zM501.5 438.6v.9h-3v-.9z" stroke="#b0c7aa" stroke-opacity=".85" stroke-width=".05" fill="#b0c7aa" fill-opacity=".85"/><path d="M550.1 401.96l.1.65.27 1.03.37 1 .5 1.02.64 1.05.86 1.13 1.15 1.23 1.6 1.4 2.4 1.7 3.98 2.27L592 427.8l2.4 1.7 1.6 1.4 1.16 1.24.86 1.12.65 1.06.5 1 .36 1.02.26 1 .1.67" stroke="#b0c7aa" stroke-opacity=".85" stroke-width="3" stroke-linejoin="round" fill="none"/><path d="M551.57 401.93l-3 .14-.07-1.6h3zM601.5 439.5h-3v-.9h3z" stroke="#b0c7aa" stroke-opacity=".85" stroke-width=".05" fill="#b0c7aa" fill-opacity=".85"/><path d="M714 445.33a6 6 0 0 1 6-6h130a6 6 0 0 1 6 6v48a6 6 0 0 1-6 6H720a6 6 0 0 1-6-6z" stroke="#3a414a" fill="#cfe4ff" fill-opacity=".85"/><use xlink:href="#c" transform="matrix(1,0,0,1,725.9999999999982,451.33333333333337) translate(6.714964313271608 22.27777777777778)"/><use xlink:href="#h" transform="matrix(1,0,0,1,725.9999999999982,451.33333333333337) translate(97.94953221450618 22.27777777777778)"/><path d="M882 446a6 6 0 0 1 6-6h130a6 6 0 0 1 6 6v48a6 6 0 0 1-6 6H888a6 6 0 0 1-6-6z" stroke="#3a414a" fill="#fff7a1" fill-opacity=".85"/><use xlink:href="#i" transform="matrix(1,0,0,1,893.9999999999991,452) translate(1.654320987654316 22.27777777777778)"/><use xlink:href="#j" transform="matrix(1,0,0,1,893.9999999999991,452) translate(64.55555555555554 22.27777777777778)"/><path d="M1050 446a6 6 0 0 1 6-6h128a6 6 0 0 1 6 6v47.33a6 6 0 0 1-6 6h-128a6 6 0 0 1-6-6z" stroke="#3a414a" fill="#cfe4ff" fill-opacity=".85"/><use xlink:href="#c" transform="matrix(1,0,0,1,1062,452) translate(5.714964313271608 22.27777777777778)"/><use xlink:href="#k" transform="matrix(1,0,0,1,1062,452) translate(96.94953221450618 22.27777777777778)"/><path d="M1120 401.96v36.08" stroke="#b0c7aa" stroke-opacity=".85" stroke-width="3" stroke-linejoin="round" fill="none"/><path d="M1121.5 402h-3v-1.54h3zM1121.5 439.54h-3V438h3z" stroke="#b0c7aa" stroke-opacity=".85" stroke-width=".05" fill="#b0c7aa" fill-opacity=".85"/><path d="M1119.68 401.92l-.07.15-.08.17-.1.16-.1.18-.13.18-.16.2-.17.2-.2.2-.2.24-.27.24-.3.27-.37.3-.43.3-.52.35-.64.38-.78.43-1 .5-1.27.56-1.7.66-2.27.8-3.24.97-4.87 1.24-7.95 1.66-15.48 2.57-97.28 12.9-7.95 1.68-4.86 1.25-3.23.97-2.28.8-1.7.66-1.27.56-1 .5-.77.43-.64.38-.52.34-.43.3-.36.3-.3.26-.26.24-.22.23-.2.2-.16.22-.15.2-.1.17-.13.18-.1.16-.08.17-.08.15" stroke="#b0c7aa" stroke-opacity=".85" stroke-width="3" stroke-linejoin="round" fill="none"/><path d="M1121.47 402.03l-3-.06.03-1.5h3zM954.5 438.63v.9h-3v-.9z" stroke="#b0c7aa" stroke-opacity=".85" stroke-width=".05" fill="#b0c7aa" fill-opacity=".85"/><path d="M1119.43 401.82l-.1.12-.13.12-.14.13-.17.13-.2.16-.24.16-.3.2-.35.2-.44.26-.57.28-.76.33-1 .4-1.4.48-1.98.6-3.04.78-4.94 1.04-9 1.5-19.52 2.4-70.9 5.5-174.42 11.6-19.53 2.4-8.98 1.5-4.94 1.03-3.04.78-2 .6-1.38.48-1 .4-.75.33-.56.3-.45.23-.37.22-.3.2-.23.16-.2.16-.16.14-.14.14-.12.12-.1.1v.02" stroke="#b0c7aa" stroke-opacity=".85" stroke-width="3" stroke-linejoin="round" fill="none"/><path d="M1121.47 402.03l-3-.06.03-1.5h3zM786.5 437.98v.9h-3v-.9z" stroke="#b0c7aa" stroke-opacity=".85" stroke-width=".05" fill="#b0c7aa" fill-opacity=".85"/><path d="M672 530c8.84 0 16 13.43 16 30s-7.16 30-16 30h-48c-8.84 0-16-13.43-16-30s7.16-30 16-30z" stroke="#3a414a" fill="#ffd9d9" fill-opacity=".85"/><use xlink:href="#e" transform="matrix(1,0,0,1,613.0013861768232,535) translate(14.165581597222221 30.27777777777778)"/><use xlink:href="#l" transform="matrix(1,0,0,1,613.0013861768232,535) translate(42.49891493055556 30.27777777777778)"/><path d="M775 532.67c8.84 0 16 13.43 16 30s-7.16 30-16 30h-48c-8.84 0-16-13.43-16-30s7.16-30 16-30z" stroke="#3a414a" fill="#ffd9d9" fill-opacity=".85"/><use xlink:href="#e" transform="matrix(1,0,0,1,716,537.6666666666667) translate(14.165581597222221 30.27777777777778)"/><use xlink:href="#m" transform="matrix(1,0,0,1,716,537.6666666666667) translate(42.49891493055556 30.27777777777778)"/><path d="M784.57 501.2l-.06.1-.08.13-.1.13-.12.15-.14.16-.16.16-.18.18-.22.2-.26.2-.3.22-.4.24-.44.28-.57.3-.7.36-.93.4-1.22.5-1.66.57-2.34.7-3.52.9-5.73 1.2-10.82 1.8-87.03 10.95-5.72 1.2-3.52.9-2.35.7-1.66.58-1.22.48-.92.4-.7.37-.58.3-.45.28-.38.25-.3.23-.27.2-.2.2-.2.17-.16.17-.14.15-.12.13-.1.14-.1.13-.04.08" stroke="#b0c7aa" stroke-opacity=".85" stroke-width="3" stroke-linejoin="round" fill="none"/><path d="M786.47 501.37l-3-.07.03-1.5h3zM649.5 528.8v.7h-3v-.7z" stroke="#b0c7aa" stroke-opacity=".85" stroke-width=".05" fill="#b0c7aa" fill-opacity=".85"/><path d="M784.9 501.3l-.02.1-.32 1.47-.55 1.42-.82 1.44-1.23 1.57-1.95 1.85-3.64 2.53L756 522.8l-1.95 1.86-1.23 1.57-.83 1.45-.56 1.42-.32 1.47v.1" stroke="#b0c7aa" stroke-opacity=".85" stroke-width="3" stroke-linejoin="round" fill="none"/><path d="M786.38 501.44l-3-.22.12-1.42h3zM752.5 531.42v.75h-3v-.75z" stroke="#b0c7aa" stroke-opacity=".85" stroke-width=".05" fill="#b0c7aa" fill-opacity=".85"/><path d="M608 626a6 6 0 0 1 6-6h208a6 6 0 0 1 6 6v48a6 6 0 0 1-6 6H614a6 6 0 0 1-6-6z" stroke="#3a414a" fill="#cfe4ff" fill-opacity=".85"/><use xlink:href="#c" transform="matrix(1,0,0,1,620.0013861768232,632) translate(5.708453896604951 22.27777777777778)"/><use xlink:href="#n" transform="matrix(1,0,0,1,620.0013861768232,632) translate(96.94302179783952 22.27777777777778)"/><path d="M856 626a6 6 0 0 1 6-6h130a6 6 0 0 1 6 6v48a6 6 0 0 1-6 6H862a6 6 0 0 1-6-6z" stroke="#3a414a" fill="#cfe4ff" fill-opacity=".85"/><use xlink:href="#c" transform="matrix(1,0,0,1,867.9999999999982,632) translate(6.714964313271608 22.27777777777778)"/><use xlink:href="#o" transform="matrix(1,0,0,1,867.9999999999982,632) translate(97.94953221450618 22.27777777777778)"/><path d="M952.96 501.96l-.07 1.12-.14 1.26-.18 1.24-.24 1.23-.28 1.22-.34 1.2-.4 1.2-.43 1.2-.52 1.2-.58 1.23-.64 1.23-.73 1.26-.8 1.28-.93 1.32-1.03 1.36-1.17 1.4-1.32 1.48-1.5 1.54-1.74 1.62-2 1.73-2.34 1.85-2.77 2-3.3 2.2-4.07 2.46-5.12 2.8-6.72 3.34-9.6 4.26-17.68 6.93-50.02 18.7-9.6 4.26-6.73 3.33-5.12 2.8-4.06 2.45-3.32 2.2-2.76 2-2.34 1.86-2 1.73-1.73 1.63-1.5 1.54-1.34 1.47-1.16 1.4-1.03 1.37-.92 1.3-.82 1.3-.72 1.25-.65 1.23-.57 1.22-.5 1.2-.46 1.2-.4 1.2-.32 1.2-.3 1.22-.22 1.22-.18 1.23-.14 1.27-.07 1.1" stroke="#b0c7aa" stroke-opacity=".85" stroke-width="3" stroke-linejoin="round" fill="none"/><path d="M954.47 502.03l-3-.06.03-1.5h3zM788.84 617.97v1.54h-3v-1.53z" stroke="#b0c7aa" stroke-opacity=".85" stroke-width=".05" fill="#b0c7aa" fill-opacity=".85"/><path d="M952.97 501.96l-.07 3.53-.3 4.5-.42 4.13-.56 3.8-.68 3.54-.8 3.35-.88 3.2-1 3.1-1.15 3.06-1.28 3.06-1.5 3.15-1.74 3.33-2.2 3.77-3.12 4.9-13.65 20.1-2.18 3.78-1.75 3.34-1.5 3.15-1.28 3.06-1.15 3.05-1 3.1-.9 3.2-.8 3.36-.67 3.54-.56 3.8-.43 4.12-.3 4.52-.07 3.53" stroke="#b0c7aa" stroke-opacity=".85" stroke-width="3" stroke-linejoin="round" fill="none"/><path d="M954.47 502.03l-3-.06.03-1.5h3zM912.5 618v1.54h-3v-1.53z" stroke="#b0c7aa" stroke-opacity=".85" stroke-width=".05" fill="#b0c7aa" fill-opacity=".85"/><path d="M1024 532.67c8.84 0 16 13.43 16 30s-7.16 30-16 30h-48c-8.84 0-16-13.43-16-30s7.16-30 16-30z" stroke="#3a414a" fill="#ffd9d9" fill-opacity=".85"/><use xlink:href="#p" transform="matrix(1,0,0,1,965,537.6666666666667) translate(14.165581597222221 30.27777777777778)"/><use xlink:href="#q" transform="matrix(1,0,0,1,965,537.6666666666667) translate(42.49891493055556 30.27777777777778)"/><path d="M1164 532.67c14.36 0 26 13.43 26 30s-11.64 30-26 30h-78c-14.36 0-26-13.43-26-30s11.64-30 26-30z" stroke="#3a414a" fill="#ffd9d9" fill-opacity=".85"/><use xlink:href="#r" transform="matrix(1,0,0,1,1065,537.6666666666667) translate(11.332248263888886 30.27777777777778)"/><use xlink:href="#s" transform="matrix(1,0,0,1,1065,537.6666666666667) translate(96.33224826388889 30.27777777777778)"/><path d="M1120 501.3v29.37" stroke="#b0c7aa" stroke-opacity=".85" stroke-width="3" stroke-linejoin="round" fill="none"/><path d="M1121.5 501.34h-3v-1.54h3zM1121.5 532.17h-3v-1.54h3z" stroke="#b0c7aa" stroke-opacity=".85" stroke-width=".05" fill="#b0c7aa" fill-opacity=".85"/><path d="M1119.68 501.25l-.04.1-.08.16-.1.18-.1.2-.14.17-.15.2-.17.2-.2.23-.22.23-.27.26-.3.28-.4.3-.45.32-.55.35-.7.42-.85.45-1.1.52-1.46.6-2 .73-2.8.9-4.24 1.13-7.12 1.58-16.04 2.8-49.37 7.68-7.13 1.58-4.24 1.14-2.8.9-2 .72-1.44.6-1.1.53-.87.45-.7.4-.54.36-.45.33-.38.3-.3.27-.28.25-.24.24-.2.2-.17.2-.16.2-.13.2-.1.18-.1.17-.08.17-.04.1" stroke="#b0c7aa" stroke-opacity=".85" stroke-width="3" stroke-linejoin="round" fill="none"/><path d="M1121.47 501.37l-3-.07.03-1.5h3zM1008.56 531.42v.75h-3v-.75z" stroke="#b0c7aa" stroke-opacity=".85" stroke-width=".05" fill="#b0c7aa" fill-opacity=".85"/><path d="M892 716.33c8.84 0 16 13.43 16 30s-7.16 30-16 30h-48c-8.84 0-16-13.43-16-30s7.16-30 16-30z" stroke="#3a414a" fill="#ffd9d9" fill-opacity=".85"/><use xlink:href="#e" transform="matrix(1,0,0,1,833.0013861768232,721.3333333333333) translate(14.165581597222221 30.27777777777778)"/><use xlink:href="#g" transform="matrix(1,0,0,1,833.0013861768232,721.3333333333333) translate(42.49891493055556 30.27777777777778)"/><path d="M991 714.67c8.84 0 16 13.43 16 30s-7.16 30-16 30h-48c-8.84 0-16-13.43-16-30s7.16-30 16-30z" stroke="#3a414a" fill="#ffd9d9" fill-opacity=".85"/><g><use xlink:href="#e" transform="matrix(1,0,0,1,932.0013861768228,719.6666666666665) translate(14.165581597222221 30.27777777777778)"/><use xlink:href="#f" transform="matrix(1,0,0,1,932.0013861768228,719.6666666666665) translate(42.49891493055556 30.27777777777778)"/></g><path d="M926.85 681.95l-.1.4-.17.6-.24.6-.32.64-.4.65-.5.7-.65.75-.86.84-1.13.94-1.6 1.1-2.33 1.34-3.8 1.78-8.06 2.94-27.1 8.76-3.82 1.77-2.34 1.35-1.6 1.1-1.14.94-.85.83-.65.75-.5.7-.4.65-.32.63-.24.62-.2.6-.07.4" stroke="#b0c7aa" stroke-opacity=".85" stroke-width="3" stroke-linejoin="round" fill="none"/><path d="M928.43 682.06l-3-.12.07-1.48h3zM868.8 715.02v.8h-3v-.8z" stroke="#b0c7aa" stroke-opacity=".85" stroke-width=".05" fill="#b0c7aa" fill-opacity=".85"/><path d="M927.12 681.96l.18.96.38 1.15.54 1.16.76 1.2 1.1 1.32 1.6 1.52 2.6 1.9 5.35 2.9 20.1 9.4 2.6 1.9 1.6 1.5 1.1 1.32.75 1.2.55 1.16.37 1.15.18.97" stroke="#b0c7aa" stroke-opacity=".85" stroke-width="3" stroke-linejoin="round" fill="none"/><path d="M928.6 681.9l-3 .2-.1-1.64h3zM968.5 714.17h-3v-.78h3z" stroke="#b0c7aa" stroke-opacity=".85" stroke-width=".05" fill="#b0c7aa" fill-opacity=".85"/><path d="M757 716.33c22.1 0 40 14.18 40 31.67 0 17.5-17.9 31.67-40 31.67H637c-22.1 0-40-14.18-40-31.67 0-17.5 17.9-31.67 40-31.67z" stroke="#3a414a" fill="#ffd9d9" fill-opacity=".85"/><g><use xlink:href="#t" transform="matrix(1,0,0,1,602.0013861768232,721.3333333333333) translate(9.620949074074076 31.27777777777778)"/><use xlink:href="#u" transform="matrix(1,0,0,1,602.0013861768232,721.3333333333333) translate(73.69502314814814 31.27777777777778)"/></g><path d="M728.94 681.96l-.03.43-.37 1.74-.6 1.66-.9 1.67-1.33 1.77-2.04 2.06-3.76 2.82L702.38 705l-2.04 2.05-1.3 1.77-.92 1.67-.6 1.65-.38 1.75-.03.44" stroke="#b0c7aa" stroke-opacity=".85" stroke-width="3" stroke-linejoin="round" fill="none"/><path d="M730.43 682.1l-3-.2.1-1.44h3.02zM698.5 715.02v.8h-3v-.8z" stroke="#b0c7aa" stroke-opacity=".85" stroke-width=".05" fill="#b0c7aa" fill-opacity=".85"/><defs><path fill="#4c535d" d="M248-139C247-14 144 9 11 0l48-248c105-6 190 8 189 109zm-34 0c1-70-52-87-126-82L50-27c98 7 163-21 164-112" id="v"/><path fill="#4c535d" d="M111-194c62-3 86 47 72 106H45c-7 38 6 69 45 68 27-1 43-14 53-32l24 11C152-15 129 4 87 4 38 3 12-23 12-71c0-70 32-119 99-123zm44 81c14-66-71-72-95-28-4 8-8 17-11 28h106" id="w"/><path fill="#4c535d" d="M76-167L44 0H12l33-167H18l4-23h27c3-47 25-81 82-69l-4 24c-35-8-44 15-46 45h37l-5 23H76" id="x"/><path fill="#4c535d" d="M50-231l6-30h32l-6 30H50zM6 0l37-190h31L37 0H6" id="y"/><path fill="#4c535d" d="M67-158c22-48 132-52 116 29L158 0h-32l25-140c3-38-53-32-70-12C52-117 51-52 38 0H6l36-190h30" id="z"/><path fill="#4c535d" d="M51-54c-9 22 5 41 31 30L79-1C43 14 10-4 19-52l22-115H19l5-23h22l19-43h21l-9 43h35l-4 23H73" id="A"/><path fill="#4c535d" d="M30-147c31-64 166-65 159 27C183-49 158 1 86 4 9 8 1-88 30-147zM88-20c53 0 68-48 68-100 0-31-11-51-44-50-52 1-68 46-68 97 0 32 13 53 44 53" id="B"/><g id="a"><use transform="matrix(0.06172839506172839,0,0,0.06172839506172839,0,0)" xlink:href="#v"/><use transform="matrix(0.06172839506172839,0,0,0.06172839506172839,15.987654320987653,0)" xlink:href="#w"/><use transform="matrix(0.06172839506172839,0,0,0.06172839506172839,28.333333333333332,0)" xlink:href="#x"/><use transform="matrix(0.06172839506172839,0,0,0.06172839506172839,34.50617283950617,0)" xlink:href="#y"/><use transform="matrix(0.06172839506172839,0,0,0.06172839506172839,39.382716049382715,0)" xlink:href="#z"/><use transform="matrix(0.06172839506172839,0,0,0.06172839506172839,51.72839506172839,0)" xlink:href="#y"/><use transform="matrix(0.06172839506172839,0,0,0.06172839506172839,56.60493827160494,0)" xlink:href="#A"/><use transform="matrix(0.06172839506172839,0,0,0.06172839506172839,62.77777777777778,0)" xlink:href="#y"/><use transform="matrix(0.06172839506172839,0,0,0.06172839506172839,67.65432098765432,0)" xlink:href="#B"/><use transform="matrix(0.06172839506172839,0,0,0.06172839506172839,80,0)" xlink:href="#z"/></g><path fill="#4c535d" d="M125-24c46 0 70-25 89-51l25 16C214-24 183 4 123 4 8 4-5-146 60-208c32-50 158-61 191-5 5 7 9 14 11 22l-32 10c-9-28-33-43-69-43-74 0-108 51-108 125 0 46 24 75 72 75" id="C"/><path fill="#4c535d" d="M133-28C103 26-5 8 13-77c13-62 24-115 90-117 29-1 46 15 56 35l19-102h32L160 0h-30zM45-64c-2 27 10 43 35 43 54-1 69-50 69-103 0-29-15-46-42-46-53-1-58 58-62 106" id="D"/><path fill="#4c535d" d="M165-48c-4 18 1 34 23 27l-3 20c-29 8-62 0-52-35h-2C116-14 99 4 63 4 30 4 8-16 8-49c0-68 71-67 138-67 10-26 0-56-31-54-26 1-42 9-47 31l-32-5c8-67 160-71 144 15-5 28-9 54-15 81zM42-50c3 52 80 24 89-6 7-12 7-24 11-38-47 1-103-4-100 44" id="E"/><path fill="#4c535d" d="M6 0l50-261h32L37 0H6" id="F"/><g id="b"><use transform="matrix(0.06172839506172839,0,0,0.06172839506172839,0,0)" xlink:href="#C"/><use transform="matrix(0.06172839506172839,0,0,0.06172839506172839,15.987654320987653,0)" xlink:href="#B"/><use transform="matrix(0.06172839506172839,0,0,0.06172839506172839,28.333333333333332,0)" xlink:href="#z"/><use transform="matrix(0.06172839506172839,0,0,0.06172839506172839,40.67901234567901,0)" xlink:href="#D"/><use transform="matrix(0.06172839506172839,0,0,0.06172839506172839,53.02469135802469,0)" xlink:href="#y"/><use transform="matrix(0.06172839506172839,0,0,0.06172839506172839,57.901234567901234,0)" xlink:href="#A"/><use transform="matrix(0.06172839506172839,0,0,0.06172839506172839,64.07407407407408,0)" xlink:href="#y"/><use transform="matrix(0.06172839506172839,0,0,0.06172839506172839,68.95061728395062,0)" xlink:href="#B"/><use transform="matrix(0.06172839506172839,0,0,0.06172839506172839,81.2962962962963,0)" xlink:href="#z"/><use transform="matrix(0.06172839506172839,0,0,0.06172839506172839,93.64197530864199,0)" xlink:href="#E"/><use transform="matrix(0.06172839506172839,0,0,0.06172839506172839,105.98765432098767,0)" xlink:href="#F"/></g><path fill="#4c535d" d="M87-220l-18 92h140l-5 28H64L45 0H11l48-248h178l-5 28H87" id="G"/><path fill="#4c535d" d="M67 3c-93-2-31-127-26-193h32L48-50c-3 39 53 32 70 12 30-34 30-101 43-152h32L157 0h-30c1-10 6-24 4-33-14 20-29 37-64 36" id="H"/><path fill="#4c535d" d="M44-68c0 29 11 47 38 47 30 0 42-19 51-41l28 9C148-21 126 4 82 4 31 4 10-29 12-85c3-77 74-140 146-93 12 8 15 23 18 40l-31 5c-1-22-13-36-36-36-52 0-65 49-65 101" id="I"/><g id="c"><use transform="matrix(0.06172839506172839,0,0,0.06172839506172839,0,0)" xlink:href="#G"/><use transform="matrix(0.06172839506172839,0,0,0.06172839506172839,13.518518518518517,0)" xlink:href="#H"/><use transform="matrix(0.06172839506172839,0,0,0.06172839506172839,25.864197530864196,0)" xlink:href="#z"/><use transform="matrix(0.06172839506172839,0,0,0.06172839506172839,38.20987654320987,0)" xlink:href="#I"/><use transform="matrix(0.06172839506172839,0,0,0.06172839506172839,49.32098765432099,0)" xlink:href="#A"/><use transform="matrix(0.06172839506172839,0,0,0.06172839506172839,55.49382716049383,0)" xlink:href="#y"/><use transform="matrix(0.06172839506172839,0,0,0.06172839506172839,60.370370370370374,0)" xlink:href="#B"/><use transform="matrix(0.06172839506172839,0,0,0.06172839506172839,72.71604938271605,0)" xlink:href="#z"/></g><path d="M844-1321c-130 0-195 53-191 182v57h443v190H653V0H373v-892H117v-190h256v-83c5-247 162-348 422-349 120-1 232 13 327 28v184c-84-10-183-19-278-19" id="J"/><use transform="matrix(0.010850694444444442,0,0,0.010850694444444442,0,0)" xlink:href="#J" id="d"/><path fill="#4c535d" d="M14 0l48-248h34L48 0H14" id="K"/><g id="e"><use transform="matrix(0.06172839506172839,0,0,0.06172839506172839,0,0)" xlink:href="#K"/><use transform="matrix(0.06172839506172839,0,0,0.06172839506172839,6.172839506172839,0)" xlink:href="#v"/></g><path d="M874 0L612-392 348 0H49l406-559-387-523h303l241 354 240-354h305L770-562 1179 0H874" id="L"/><use transform="matrix(0.010850694444444444,0,0,0.010850694444444444,0,0)" xlink:href="#L" id="f"/><path d="M143 212c82 12 185 12 233-31 50-45 83-117 110-192L38-1082h297c100 284 211 557 291 861 72-305 176-578 270-861h294L742 57c-80 192-156 368-417 368-60 0-131-4-182-13V212" id="M"/><use transform="matrix(0.010850694444444444,0,0,0.010850694444444444,0,0)" xlink:href="#M" id="g"/><path d="M101-516v-322l1027-391v228L295-676l833 324v227" id="N"/><use transform="matrix(0.010850694444444442,0,0,0.010850694444444442,0,0)" xlink:href="#N" id="h"/><path fill="#4c535d" d="M219-77C219 17 104-2 11 0l48-248c73 2 169-15 169 57 0 38-24 54-60 60 29 5 51 21 51 54zm-26-111c0-44-62-31-105-33l-16 79c55 0 121 9 121-46zm-7 110c-1-49-69-36-119-38L50-27c61-1 137 12 136-51" id="O"/><path fill="#4c535d" d="M103-194c29 0 47 14 56 36 2-11 5-23 8-32h30L160-5C157 61 82 97 21 62 9 55 4 45 1 30l28-7c7 42 83 31 92-3 4-16 9-38 13-55-13 20-29 36-62 36-40 0-60-25-60-64 0-71 23-131 91-131zm4 24c-53 0-58 54-61 104-2 27 10 44 36 44 49 0 65-50 67-102 1-29-15-46-42-46" id="P"/><g id="i"><use transform="matrix(0.06172839506172839,0,0,0.06172839506172839,0,0)" xlink:href="#O"/><use transform="matrix(0.06172839506172839,0,0,0.06172839506172839,14.814814814814813,0)" xlink:href="#w"/><use transform="matrix(0.06172839506172839,0,0,0.06172839506172839,27.160493827160494,0)" xlink:href="#P"/><use transform="matrix(0.06172839506172839,0,0,0.06172839506172839,39.50617283950617,0)" xlink:href="#y"/><use transform="matrix(0.06172839506172839,0,0,0.06172839506172839,44.382716049382715,0)" xlink:href="#z"/></g><path fill="#4c535d" d="M68-162c25-46 127-43 121 31C183-60 169 1 98 4 69 5 53-11 43-31L36 0H5l52-261h31zm88 36c2-27-9-43-34-43-55 0-70 51-70 103 0 29 15 45 43 46 52 0 58-58 61-106" id="Q"/><path fill="#4c535d" d="M127 0L80-88 50-66 37 0H6l51-261h31L57-100l99-90h39l-93 82L161 0h-34" id="R"/><g id="j"><use transform="matrix(0.06172839506172839,0,0,0.06172839506172839,0,0)" xlink:href="#Q"/><use transform="matrix(0.06172839506172839,0,0,0.06172839506172839,12.345679012345679,0)" xlink:href="#F"/><use transform="matrix(0.06172839506172839,0,0,0.06172839506172839,17.22222222222222,0)" xlink:href="#B"/><use transform="matrix(0.06172839506172839,0,0,0.06172839506172839,29.5679012345679,0)" xlink:href="#I"/><use transform="matrix(0.06172839506172839,0,0,0.06172839506172839,40.67901234567901,0)" xlink:href="#R"/></g><path d="M726-569v408H500v-408H101v-224h399v-408h226v408h402v224H726" id="S"/><use transform="matrix(0.010850694444444442,0,0,0.010850694444444442,0,0)" xlink:href="#S" id="k"/><path fill="#282c33" d="M874 0L612-392 348 0H49l406-559-387-523h303l241 354 240-354h305L770-562 1179 0H874" id="T"/><use transform="matrix(0.010850694444444444,0,0,0.010850694444444444,0,0)" xlink:href="#T" id="l"/><path fill="#282c33" d="M143 212c82 12 185 12 233-31 50-45 83-117 110-192L38-1082h297c100 284 211 557 291 861 72-305 176-578 270-861h294L742 57c-80 192-156 368-417 368-60 0-131-4-182-13V212" id="U"/><use transform="matrix(0.010850694444444444,0,0,0.010850694444444444,0,0)" xlink:href="#U" id="m"/><path d="M802-909c-3-189-2-383-2-575h281v1248c-1 83 4 168 8 236H817c-9-50-14-117-15-176h-4C735-49 651 20 482 20 191 20 97-238 97-539c0-243 66-432 221-519 50-28 108-42 175-42 162 2 253 78 309 191zm-70 658c91-113 93-462 2-584-46-61-145-100-224-53-96 56-119 190-120 349 0 123 17 214 52 275 46 82 130 115 222 74 25-12 46-33 68-61" id="V"/><path d="M794-190h353V0H118v-190h395v-702H223v-190h571v892zM513-1277v-207h281v207H513" id="W"/><path d="M622-916c-112 2-200 14-200 111 0 90 89 101 168 121 234 58 514 77 514 368C1104-4 751 54 434 5 267-21 161-112 121-270l247-37c24 111 113 145 252 141 114-3 226-12 226-124 0-101-103-113-192-134-225-54-490-76-490-351 0-247 201-328 458-328 245 0 413 88 457 292l-249 26c-16-98-92-133-208-131" id="X"/><path d="M427-171c3 195 2 397 2 596H148V-846c1-83-4-168-8-236h272c10 49 14 118 15 176h4c59-114 151-197 316-197 291 0 385 259 385 560 0 243-65 433-220 521-50 28-109 42-176 42-162-2-253-78-309-191zm69-661c-91 113-92 463-1 586 46 62 145 101 225 54 96-57 118-191 119-351 0-123-18-215-53-276-46-82-128-115-220-74-25 12-48 33-70 61" id="Y"/><path d="M794-190h353V0H118v-190h395v-1104H223v-190h571v1294" id="Z"/><path d="M775-193C708-75 621 20 439 20 226 20 106-93 106-306c0-251 170-341 417-346l223-4c4-143-12-264-148-264-103 0-141 58-150 153l-293-14c37-219 194-321 455-321 263 0 418 130 417 390v392c1 84 5 161 89 160 21 0 42-2 62-6v152c-57 15-108 27-180 26-145 0-202-73-217-205h-6zm-256 17c168 0 234-139 227-325-166 4-347-25-347 173 0 94 33 152 120 152" id="aa"/><g id="n"><use transform="matrix(0.010850694444444442,0,0,0.010850694444444442,0,0)" xlink:href="#V"/><use transform="matrix(0.010850694444444442,0,0,0.010850694444444442,13.33550347222222,0)" xlink:href="#W"/><use transform="matrix(0.010850694444444442,0,0,0.010850694444444442,26.67100694444444,0)" xlink:href="#X"/><use transform="matrix(0.010850694444444442,0,0,0.010850694444444442,40.00651041666666,0)" xlink:href="#Y"/><use transform="matrix(0.010850694444444442,0,0,0.010850694444444442,53.34201388888888,0)" xlink:href="#Z"/><use transform="matrix(0.010850694444444442,0,0,0.010850694444444442,66.6775173611111,0)" xlink:href="#aa"/><use transform="matrix(0.010850694444444442,0,0,0.010850694444444442,80.01302083333331,0)" xlink:href="#M"/></g><path d="M324-409v-244h580v244H324" id="ab"/><use transform="matrix(0.010850694444444442,0,0,0.010850694444444442,0,0)" xlink:href="#ab" id="o"/><g id="p"><use transform="matrix(0.06172839506172839,0,0,0.06172839506172839,0,0)" xlink:href="#K"/><use transform="matrix(0.06172839506172839,0,0,0.06172839506172839,6.172839506172839,0)" xlink:href="#v"/></g><use transform="matrix(0.010850694444444444,0,0,0.010850694444444444,0,0)" xlink:href="#L" id="q"/><path fill="#4c535d" d="M173 0L80-213 41 0H11l48-248h37l94 214 40-214h30L212 0h-39" id="ac"/><path fill="#4c535d" d="M248-111c6-24 9-61-24-58-72 9-57 108-77 169h-31l26-142c3-37-50-30-64-10C52-115 50-51 37 0H6l36-190h30c-1 10-6 24-4 32 13-43 101-52 105 5 13-22 29-41 61-41 90 0 28 129 23 194h-31" id="ad"/><path fill="#4c535d" d="M66-151c12-25 30-51 66-40l-6 26C45-176 58-65 38 0H6l36-190h30" id="ae"/><g id="r"><use transform="matrix(0.06172839506172839,0,0,0.06172839506172839,0,0)" xlink:href="#ac"/><use transform="matrix(0.06172839506172839,0,0,0.06172839506172839,15.987654320987653,0)" xlink:href="#H"/><use transform="matrix(0.06172839506172839,0,0,0.06172839506172839,28.333333333333332,0)" xlink:href="#ad"/><use transform="matrix(0.06172839506172839,0,0,0.06172839506172839,46.79012345679012,0)" xlink:href="#Q"/><use transform="matrix(0.06172839506172839,0,0,0.06172839506172839,59.1358024691358,0)" xlink:href="#w"/><use transform="matrix(0.06172839506172839,0,0,0.06172839506172839,71.48148148148148,0)" xlink:href="#ae"/></g><path d="M426-814c58-49 145-93 255-90 282 8 442 169 442 450 0 312-203 474-522 474-288 0-453-130-497-372l281-23c24 104 89 172 219 172 153 0 230-91 230-245 0-144-78-226-224-229-94-2-148 42-191 91H145l49-763h847v209H449" id="af"/><use transform="matrix(0.010850694444444444,0,0,0.010850694444444444,0,0)" xlink:href="#af" id="s"/><path fill="#4c535d" d="M194-120c59 52 2 134-86 124-53-6-90-18-98-63l31-7c8 30 29 43 70 43 46 0 84-17 71-62-32-43-135-20-137-98-3-89 178-90 191-16l-30 9c-8-48-127-53-127 5 0 53 81 35 115 65" id="ag"/><g id="t"><use transform="matrix(0.06172839506172839,0,0,0.06172839506172839,0,0)" xlink:href="#ag"/><use transform="matrix(0.06172839506172839,0,0,0.06172839506172839,14.814814814814813,0)" xlink:href="#A"/><use transform="matrix(0.06172839506172839,0,0,0.06172839506172839,20.98765432098765,0)" xlink:href="#ae"/><use transform="matrix(0.06172839506172839,0,0,0.06172839506172839,28.33333333333333,0)" xlink:href="#y"/><use transform="matrix(0.06172839506172839,0,0,0.06172839506172839,33.20987654320987,0)" xlink:href="#z"/><use transform="matrix(0.06172839506172839,0,0,0.06172839506172839,45.55555555555555,0)" xlink:href="#P"/></g><path d="M942-844H743l-37-641h275zm-456 0H287l-37-641h273" id="ah"/><path d="M1100-543c2 361-147 563-501 563-342 0-470-199-470-548v-821h295v818c3 172 13 322 183 320 173-2 198-150 198-330v-808h295v806" id="ai"/><path d="M768-1103c247 0 336 167 336 416V0H824v-619c-3-164-24-273-171-273-164 0-229 142-229 312V0H143c-4-359 9-736-8-1082h268c7 63 12 146 13 215h4c67-145 160-236 348-236" id="aj"/><path d="M1113-274C1038-96 884 20 626 20c-352 0-526-209-526-566 0-358 185-556 530-556 358 0 496 251 499 615H395c5 180 68 319 245 319 102 0 186-45 208-129zM857-663c-6-177-128-307-315-247-94 30-141 121-145 247h460" id="ak"/><path d="M875-1102c70 0 148 7 206 17v237c-110-17-267-37-359 15-123 69-192 207-192 395V0H250c-10-367 32-789-52-1082h271c19 69 36 149 46 228h4c52-151 151-250 356-248" id="al"/><path d="M730-426H500l-32-923h294zM468 0v-270h288V0H468" id="am"/><g id="u"><use transform="matrix(0.010850694444444444,0,0,0.010850694444444444,0,0)" xlink:href="#ah"/><use transform="matrix(0.010850694444444444,0,0,0.010850694444444444,13.335503472222221,0)" xlink:href="#ai"/><use transform="matrix(0.010850694444444444,0,0,0.010850694444444444,26.671006944444443,0)" xlink:href="#aj"/><use transform="matrix(0.010850694444444444,0,0,0.010850694444444444,40.006510416666664,0)" xlink:href="#V"/><use transform="matrix(0.010850694444444444,0,0,0.010850694444444444,53.342013888888886,0)" xlink:href="#ak"/><use transform="matrix(0.010850694444444444,0,0,0.010850694444444444,66.67751736111111,0)" xlink:href="#al"/><use transform="matrix(0.010850694444444444,0,0,0.010850694444444444,80.01302083333334,0)" xlink:href="#am"/><use transform="matrix(0.010850694444444444,0,0,0.010850694444444444,93.34852430555557,0)" xlink:href="#ah"/></g></defs></g></svg>