<?xml version="1.0"?>
<svg version="1.1" width="512" height="512" xmlns="http://www.w3.org/2000/svg"><path d="M 0,0 V 512 H 512 V 0 H 314.56209 v 2.7614383 c 0,32.4266657 -26.28595,58.7042477 -58.70425,58.7042477 -32.42666,0 -58.70424,-26.285948 -58.70424,-58.7042477 V 0 Z m 322.87254,177.21732 c 7.14945,0 13.90147,2.91309 20.25655,8.73856 6.35506,5.82547 11.91669,15.88738 16.683,30.18628 4.76629,14.29888 12.11434,43.82329 22.04412,88.57353 l 14.09968,62.95424 c 5.69308,26.08225 11.65151,43.49382 17.87418,52.23203 6.22267,8.73822 13.76828,13.17316 22.63888,13.30556 14.82849,0 23.23628,-10.46033 25.22222,-31.37908 h 7.15033 c 0,20.91875 -3.37682,36.1455 -10.12908,45.6781 -6.75225,9.53259 -15.2923,14.29901 -25.61928,14.29901 -8.34103,0 -16.35038,-3.11229 -24.02942,-9.33496 -7.67903,-6.22266 -14.56332,-23.10354 -20.65359,-50.64215 l -17.08006,-77.05393 -59.18138,134.25 h -37.53431 l 84.99836,-183.10457 c -4.50151,-23.69909 -9.92923,-41.24294 -16.2843,-52.62909 -6.35506,-11.38616 -14.23217,-17.07843 -23.63236,-17.07843 -7.54664,0 -14.10108,2.84613 -19.66176,8.53922 -5.56068,5.69307 -8.73831,14.62992 -9.53269,26.81046 h -7.14869 c 0.39719,-19.46239 4.30308,-35.01899 11.71732,-46.66995 7.41424,-11.65095 16.68093,-17.54242 27.80228,-17.67483 z" style="fill:#739366" /></svg>
